<?xml version="1.0" standalone="no"?><!DOCTYPE svg PUBLIC "-//W3C//DTD SVG 1.1//EN" "http://www.w3.org/Graphics/SVG/1.1/DTD/svg11.dtd"><svg class="icon" width="200px" height="200.00px" viewBox="0 0 1024 1024" version="1.1" xmlns="http://www.w3.org/2000/svg"><path d="M512 293.236364c-116.363636 0-214.109091 97.745455-214.109091 214.109091s97.745455 214.109091 214.109091 214.10909 214.109091-97.745455 214.109091-214.10909-97.745455-214.109091-214.109091-214.109091z m0 358.4c-79.127273 0-144.290909-65.163636-144.290909-144.290909S432.872727 363.054545 512 363.054545s139.636364 65.163636 139.636364 144.29091-60.509091 144.290909-139.636364 144.290909z"  /><path d="M1014.690909 484.072727c-32.581818-65.163636-69.818182-121.018182-121.018182-172.218182C614.4 46.545455 158.254545 139.636364 4.654545 488.727273c-4.654545 9.309091-4.654545 27.927273 0 41.890909C107.054545 740.072727 279.272727 847.127273 512 861.090909c232.727273-9.309091 404.945455-116.363636 507.345455-325.818182 4.654545-18.618182 4.654545-32.581818-4.654546-51.2z m-74.472727 51.2C847.127273 698.181818 702.836364 791.272727 512 791.272727s-335.127273-88.436364-432.872727-256c-9.309091-13.963636-9.309091-27.927273 0-46.545454 97.745455-167.563636 237.381818-251.345455 428.218182-260.654546 195.490909 9.309091 339.781818 93.090909 432.872727 256 9.309091 18.618182 9.309091 32.581818 0 51.2z"  /><path d="M465.454545 465.454545m-41.890909 0a41.890909 41.890909 0 1 0 83.781819 0 41.890909 41.890909 0 1 0-83.781819 0Z"  /></svg>