<?xml version="1.0" standalone="no"?><!DOCTYPE svg PUBLIC "-//W3C//DTD SVG 1.1//EN" "http://www.w3.org/Graphics/SVG/1.1/DTD/svg11.dtd"><svg class="icon" width="200px" height="200.00px" viewBox="0 0 1024 1024" version="1.1" xmlns="http://www.w3.org/2000/svg"><path d="M460.788 149.568h37.61c0.25-11.408 0.376-26.953 0.376-46.511h-27.706v-15.922h27.706v-38.613h17.551v38.613h43.502v-38.613h17.551v38.613h32.595v15.922h-32.595v46.511h41.12v15.796h-41.12v66.819h-17.551v-66.819h-45.132c-4.263 29.962-16.924 52.152-37.986 66.819-3.761-4.263-8.149-8.65-13.289-13.414 17.927-11.283 28.959-29.085 33.222-53.406h-35.855v-15.796zM490.625 241.21l52.027 1.129 77.852-2.005c-1.629 4.889-3.636 10.656-6.142 17.426l-72.963 0.126-52.904-1.003c-24.195-0.502-41.371-9.026-51.525-25.574-5.892 5.642-14.793 15.42-26.327 29.461l-9.026-18.178c12.913-12.537 22.315-21.563 28.082-26.953v-73.966h-26.077v-16.298h43.126v93.773c9.026 14.417 23.694 21.688 43.878 22.064zM516.074 149.568h43.753v-46.511h-43.502c0 25.198-0.126 40.619-0.25 46.511zM427.566 51.156c11.158 13.915 21.438 27.706 30.714 41.496-6.143 4.012-11.534 7.647-16.298 11.033-8.023-14.041-17.551-28.458-28.458-43.126l14.041-9.402zM482.1 368.206h139.030v16.423h-42.624v85.875c0 18.178-9.152 27.33-27.456 27.33-12.286 0-24.822-0.126-37.61-0.25-0.878-5.892-2.005-12.411-3.26-19.807 11.408 1.129 22.943 1.755 34.476 1.755 10.155 0 15.169-5.015 15.169-14.918v-79.983h-77.727v-16.423zM402.492 417.349c22.691-18.554 43.376-44.755 61.93-78.479l15.42 9.528c-7.522 13.038-15.546 25.198-23.945 36.607v116.339h-18.303v-93.773c-8.776 9.904-17.927 19.181-27.456 27.58-2.257-6.143-4.889-12.035-7.647-17.802zM494.762 301.761h114.083v16.548h-114.083v-16.548zM403.621 347.645c23.318-17.927 41.997-38.863 56.289-62.809l15.796 9.653c-17.050 26.077-38.111 49.52-63.309 70.080-2.632-5.516-5.516-11.158-8.776-16.924zM417.411 571.548h84.622v-47.889h18.93v47.889h85.499v100.167h-18.052v-11.784h-67.447v81.738h-18.93v-81.739h-66.569v11.784h-18.052v-100.167zM588.41 587.846h-67.447v55.788h67.447v-55.788zM435.464 643.634h66.569v-55.788h-66.569v55.788zM705.752-1.999h-387.505v900l195.571-115.086 191.934 115.086v-900z" /></svg>