<?xml version="1.0" standalone="no"?><!DOCTYPE svg PUBLIC "-//W3C//DTD SVG 1.1//EN" "http://www.w3.org/Graphics/SVG/1.1/DTD/svg11.dtd"><svg class="icon" width="200px" height="200.00px" viewBox="0 0 1024 1024" version="1.1" xmlns="http://www.w3.org/2000/svg"><path d="M342.816 2.384H121.472C57.624 2.384 5.696 54.344 5.696 118.184v221.376c0 63.848 51.928 115.784 115.776 115.784h221.336c63.872 0 115.832-51.928 115.832-115.784V118.176C458.648 54.344 406.688 2.384 342.816 2.384z m55.44 337.168c0 30.552-24.856 55.384-55.44 55.384H121.472a55.44 55.44 0 0 1-55.384-55.384V118.176c0-30.544 24.84-55.408 55.384-55.408h221.336c30.584 0 55.44 24.856 55.44 55.408v221.376z" fill="#838384" /><path d="M281.128 142.04H183.216a37.912 37.912 0 0 0-37.864 37.864v97.896a37.872 37.872 0 0 0 37.864 37.864H281.12a37.872 37.872 0 0 0 37.864-37.864V179.904a37.896 37.896 0 0 0-37.856-37.864zM275.432 709.552H177.528a37.904 37.904 0 0 0-37.864 37.872v97.896a37.864 37.864 0 0 0 37.864 37.856h97.904a37.864 37.864 0 0 0 37.864-37.856V747.432a37.912 37.912 0 0 0-37.864-37.88z" fill="#838384" /><path d="M337.152 568.656H115.808C51.944 568.656 0 620.592 0 684.432v221.408c0 63.848 51.944 115.784 115.808 115.784h221.344c63.84 0 115.8-51.928 115.8-115.784V684.432c0-63.84-51.96-115.776-115.8-115.776z m55.408 337.176c0 30.544-24.856 55.384-55.408 55.384H115.808c-30.552 0-55.408-24.832-55.408-55.384V684.432c0-30.544 24.856-55.376 55.408-55.376h221.344c30.544 0 55.408 24.832 55.408 55.376v221.4zM988.112 805.216a30.176 30.176 0 0 0-30.192 30.2v70.416c0 30.544-24.888 55.384-55.44 55.384H620.736a30.176 30.176 0 0 0-30.192 30.192 30.176 30.176 0 0 0 30.192 30.2h281.744c63.864 0 115.832-51.928 115.832-115.784v-70.416a30.184 30.184 0 0 0-30.2-30.192zM846.48 142.04H748.568a37.904 37.904 0 0 0-37.856 37.864v97.896a37.864 37.864 0 0 0 37.856 37.864h97.904a37.864 37.864 0 0 0 37.856-37.864V179.904a37.888 37.888 0 0 0-37.848-37.864z" fill="#838384" /><path d="M908.168 2.384H686.824c-63.816 0-115.776 51.96-115.776 115.8v221.376c0 63.848 51.96 115.784 115.776 115.784h221.344c63.872 0 115.832-51.928 115.832-115.784V118.176C1024 54.344 972.04 2.384 908.168 2.384z m55.44 337.168c0 30.552-24.888 55.384-55.448 55.384H686.824a55.44 55.44 0 0 1-55.384-55.384V118.176c0-30.544 24.832-55.408 55.384-55.408h221.344c30.552 0 55.448 24.856 55.448 55.408v221.376zM765.408 598.856H620.736c-16.688 0-30.192 13.504-30.192 30.192s13.504 30.192 30.192 30.192H735.2v60.4a30.168 30.168 0 0 0 30.2 30.184h192.504a30.176 30.176 0 0 0 30.192-30.184 30.176 30.176 0 0 0-30.192-30.2H795.6v-60.392a30.176 30.176 0 0 0-30.192-30.192zM620.736 878.176h166.08a30.176 30.176 0 0 0 30.192-30.192 30.176 30.176 0 0 0-30.192-30.2h-166.08a30.176 30.176 0 0 0-30.192 30.2 30.168 30.168 0 0 0 30.192 30.192zM620.736 757.392h15.104c16.68 0 30.184-13.504 30.184-30.192s-13.504-30.2-30.184-30.2h-15.104c-16.688 0-30.192 13.504-30.192 30.2s13.504 30.192 30.192 30.192z" fill="#838384" /></svg>